<svg class="svg-icon" style="width: 1em; height: 1em;vertical-align: middle;fill: currentColor;overflow: hidden;" viewBox="0 0 1024 1024" version="1.1" xmlns="http://www.w3.org/2000/svg"><path d="M935.958316 538.330692 807.402405 267.239484l50.877761 0c0.363274-1.502213 0.985444-2.990101 0.985444-4.519943 0-36.603663-105.953124-67.476811-250.885004-77.223802-11.290137-27.988448-50.374294-48.682769-96.996125-48.682769-46.580898 0-85.642542 20.659529-96.968495 48.620347-145.477302 9.655917-251.940033 40.59251-251.940033 77.286224 0 1.530866 0.621147 3.018753 0.978281 4.519943l61.147662 0L96.045985 538.330692 62.621734 538.330692c0 44.322461 78.781274 80.213903 175.973874 80.213903 97.219205 0 176.001503-35.890418 176.001503-80.213903l-24.209378 0L261.826705 267.239484 469.128075 267.239484l-35.855626 535.162536c-70.663386 11.011798-122.147968 44.924165-122.147968 85.098143l200.231347 0 0.027629 0 200.231347 0c0-40.173978-51.485605-74.086345-122.120338-85.098143L553.638841 267.239484l216.537731 0L641.622708 538.330692l-33.431414 0c0 44.322461 78.781274 80.213903 175.981037 80.213903 97.220229 0 175.99434-35.890418 175.99434-80.213903L935.958316 538.330692zM348.454692 538.330692 137.97391 538.330692l105.239879-221.925439L348.454692 538.330692zM683.549609 538.330692l105.239879-221.925439 105.240903 221.925439L683.549609 538.330692z"  /></svg>