<?xml version="1.0" standalone="no"?>
<!DOCTYPE svg PUBLIC "-//W3C//DTD SVG 20010904//EN"
 "http://www.w3.org/TR/2001/REC-SVG-20010904/DTD/svg10.dtd">
<svg version="1.0" xmlns="http://www.w3.org/2000/svg"
 width="439.000000pt" height="370.000000pt" viewBox="0 0 439.000000 370.000000"
 preserveAspectRatio="xMidYMid meet">

<g transform="translate(0.000000,370.000000) scale(0.100000,-0.100000)"
fill="#000000" stroke="none">
<path d="M1615 3559 c-310 -38 -592 -176 -811 -395 -223 -224 -347 -492 -376
-812 -24 -270 48 -565 195 -793 203 -316 534 -537 907 -606 129 -23 382 -23
504 1 237 46 406 125 641 300 7 6 261 -183 776 -578 420 -322 771 -585 779
-583 8 1 16 9 18 18 2 10 -247 207 -758 598 -418 321 -760 586 -760 590 0 4
12 18 26 32 40 37 136 157 177 221 88 139 160 322 188 478 17 97 17 343 0 440
-85 477 -432 870 -908 1029 -168 57 -419 82 -598 60z m345 -54 c670 -90 1161
-663 1126 -1315 -10 -189 -44 -319 -131 -495 -159 -320 -445 -557 -800 -660
-497 -145 -1042 12 -1372 395 -122 142 -193 267 -250 439 -60 183 -76 369 -47
558 64 433 346 798 754 977 228 101 472 135 720 101z"/>
<path d="M1652 2666 c-30 -7 -66 -22 -80 -33 -24 -18 -27 -28 -30 -85 -2 -35
2 -77 7 -91 l10 -27 51 20 c74 29 123 27 150 -7 31 -39 21 -78 -40 -166 -51
-73 -71 -137 -53 -163 5 -8 27 -10 68 -5 56 6 60 8 66 37 9 45 13 50 89 100
57 37 74 55 96 100 23 46 26 64 22 123 -5 87 -39 142 -111 179 -58 30 -166 38
-245 18z"/>
<path d="M1674 2036 c-28 -28 -34 -42 -34 -76 0 -34 6 -48 34 -76 73 -73 176
-24 176 82 0 51 -53 104 -105 104 -29 0 -45 -8 -71 -34z"/>
</g>
</svg>
