<?xml version="1.0" standalone="no"?>
<!DOCTYPE svg PUBLIC "-//W3C//DTD SVG 20010904//EN"
 "http://www.w3.org/TR/2001/REC-SVG-20010904/DTD/svg10.dtd">
<svg version="1.0" xmlns="http://www.w3.org/2000/svg"
 width="512.000000pt" height="512.000000pt" viewBox="0 0 512.000000 512.000000"
 preserveAspectRatio="xMidYMid meet">

<g transform="translate(0.000000,512.000000) scale(0.100000,-0.100000)"
fill="#ffffff" stroke="none">
<path d="M1300 4953 c-476 -51 -900 -386 -1065 -843 -94 -260 -97 -564 -10
-827 147 -442 504 -760 965 -859 119 -26 381 -26 500 0 259 56 463 167 651
355 188 188 299 392 355 651 26 119 26 381 0 500 -115 534 -539 937 -1067
1014 -97 15 -241 18 -329 9z m303 -168 c371 -56 690 -292 847 -628 293 -625
-40 -1359 -703 -1551 -522 -151 -1087 105 -1317 597 -294 626 40 1362 705
1552 159 45 304 55 468 30z"/>
<path d="M1269 4624 c-192 -34 -361 -124 -505 -268 -147 -147 -234 -314 -269
-513 -87 -497 231 -977 727 -1099 35 -8 117 -17 183 -20 202 -10 390 42 561
155 283 187 447 507 431 841 -10 190 -59 342 -157 489 -213 318 -598 483 -971
415z m374 -173 c42 -11 119 -42 170 -68 75 -38 109 -64 187 -143 79 -78 105
-112 143 -187 69 -135 90 -220 90 -373 0 -153 -21 -238 -90 -373 -38 -75 -64
-109 -143 -187 -78 -79 -112 -105 -187 -143 -132 -68 -221 -90 -368 -90 -150
0 -226 17 -365 85 -93 45 -115 61 -200 147 -78 78 -105 113 -143 188 -69 133
-89 220 -90 373 0 152 20 238 90 373 64 125 199 263 318 324 196 101 388 125
588 74z"/>
<path d="M1389 4301 c-19 -15 -25 -32 -29 -82 l-5 -62 -49 -14 c-68 -20 -147
-99 -171 -172 -37 -112 -4 -227 86 -305 54 -46 116 -66 206 -66 86 0 125 -16
153 -63 25 -41 25 -73 0 -114 -34 -56 -60 -63 -245 -63 -163 0 -166 0 -190
-25 -33 -32 -33 -78 0 -110 22 -23 32 -25 120 -25 l95 0 0 -55 c0 -46 4 -60
25 -80 29 -30 74 -32 106 -6 19 15 25 32 29 82 l5 62 49 14 c35 10 64 29 101
67 65 65 90 130 83 220 -6 72 -26 116 -77 169 -58 62 -102 80 -216 86 -111 7
-137 17 -165 64 -24 39 -25 68 -5 108 32 61 61 69 248 69 165 0 168 0 192 25
33 32 33 78 0 110 -22 23 -32 25 -120 25 l-95 0 0 55 c0 46 -4 60 -25 80 -29
30 -74 32 -106 6z"/>
<path d="M2745 4456 c-30 -30 -33 -74 -6 -107 l19 -24 339 -5 338 -5 5 -230
c4 -197 8 -235 24 -267 20 -42 83 -103 124 -121 17 -7 112 -14 257 -17 l230
-5 5 -338 5 -339 24 -19 c33 -27 77 -24 107 6 l25 25 -3 358 -3 357 -33 70
c-30 63 -59 96 -305 342 -246 246 -279 275 -342 305 l-70 33 -357 3 -358 3
-25 -25z m1073 -614 c-155 -3 -189 4 -207 44 -6 15 -11 84 -11 172 l0 147 180
-180 180 -180 -142 -3z"/>
<path d="M2905 3575 c-16 -15 -25 -36 -25 -55 0 -19 9 -40 25 -55 24 -25 26
-25 215 -25 189 0 191 0 215 25 16 15 25 36 25 55 0 19 -9 40 -25 55 -24 25
-26 25 -215 25 -189 0 -191 0 -215 -25z"/>
<path d="M2825 3095 c-16 -15 -25 -36 -25 -55 0 -19 9 -40 25 -55 l24 -25 471
0 471 0 24 25 c16 15 25 36 25 55 0 19 -9 40 -25 55 l-24 25 -471 0 -471 0
-24 -25z"/>
<path d="M4620 3023 c-32 -12 -73 -44 -146 -115 l-101 -98 -54 0 c-39 0 -70
-7 -105 -25 -38 -19 -234 -209 -847 -823 l-799 -799 -84 -294 c-46 -161 -84
-304 -84 -317 0 -30 42 -72 72 -72 13 0 156 38 317 84 l294 84 779 779 779
778 34 -37 c39 -42 50 -75 40 -115 -4 -18 -80 -102 -201 -224 -171 -173 -194
-199 -194 -228 0 -43 38 -81 81 -81 29 0 55 22 225 191 228 227 249 258 248
369 0 90 -21 137 -95 215 -46 49 -49 55 -49 105 l0 53 98 101 c104 107 132
157 132 236 0 171 -175 291 -340 233z m151 -169 c26 -24 33 -68 15 -101 -8
-15 -44 -57 -80 -93 l-66 -65 -62 63 -63 62 70 71 c39 39 79 75 90 80 26 11
74 3 96 -17z m-309 -312 c95 -95 108 -112 108 -142 0 -32 -33 -67 -465 -500
l-465 -465 -142 143 -143 142 465 465 c433 432 468 465 500 465 30 0 47 -13
142 -108z m-1077 -1082 l140 -140 -243 -243 -242 -242 -142 143 -143 142 240
240 c132 132 242 240 245 240 3 0 68 -63 145 -140z m-518 -701 c-6 -4 -64 -21
-127 -39 -63 -18 -120 -35 -127 -37 -12 -5 -3 33 49 211 l20 69 99 -99 c64
-64 94 -101 86 -105z"/>
<path d="M2505 2615 c-16 -15 -25 -36 -25 -55 0 -19 9 -40 25 -55 l24 -25 551
0 551 0 24 25 c16 15 25 36 25 55 0 19 -9 40 -25 55 l-24 25 -551 0 -551 0
-24 -25z"/>
<path d="M904 2295 l-25 -25 3 -902 3 -903 32 -67 c44 -93 100 -151 191 -196
l76 -37 1376 0 1376 0 76 37 c91 45 147 103 191 196 l32 67 3 462 3 463 -25
25 c-30 30 -74 33 -107 6 l-24 -19 -5 -454 c-5 -417 -6 -456 -24 -488 -26 -49
-64 -88 -111 -113 l-40 -22 -1345 0 -1345 0 -40 22 c-47 25 -85 64 -111 113
-18 33 -19 81 -24 928 l-5 894 -24 19 c-33 27 -77 24 -107 -6z"/>
<path d="M1305 2135 c-16 -15 -25 -36 -25 -55 0 -19 9 -40 25 -55 l24 -25 591
0 591 0 24 25 c33 32 33 78 0 110 l-24 25 -591 0 -591 0 -24 -25z"/>
<path d="M2745 2135 c-16 -15 -25 -36 -25 -55 0 -19 9 -40 25 -55 24 -25 26
-25 215 -25 189 0 191 0 215 25 16 15 25 36 25 55 0 19 -9 40 -25 55 -24 25
-26 25 -215 25 -189 0 -191 0 -215 -25z"/>
<path d="M1305 1655 c-16 -15 -25 -36 -25 -55 0 -19 9 -40 25 -55 l24 -25 671
0 671 0 24 25 c33 32 33 78 0 110 l-24 25 -671 0 -671 0 -24 -25z"/>
<path d="M1305 1175 c-16 -15 -25 -36 -25 -55 0 -19 9 -40 25 -55 l24 -25 471
0 471 0 24 25 c33 32 33 78 0 110 l-24 25 -471 0 -471 0 -24 -25z"/>
</g>
</svg>
